<svg width="780" height="500" viewBox="0 0 780 500" fill="none" xmlns="http://www.w3.org/2000/svg">
  <rect width="780" height="500" rx="40" fill="#ffffff"/>
  <g fill="#1a1a1a">
    <rect x="120" y="120" width="14" height="200"/>
    <rect x="144" y="120" width="8" height="200"/>
    <rect x="164" y="120" width="20" height="200"/>
    <rect x="196" y="120" width="8" height="200"/>
    <rect x="214" y="120" width="14" height="200"/>
    <rect x="240" y="120" width="8" height="200"/>
    <rect x="258" y="120" width="24" height="200"/>
    <rect x="294" y="120" width="8" height="200"/>
    <rect x="312" y="120" width="14" height="200"/>
    <rect x="338" y="120" width="20" height="200"/>
    <rect x="370" y="120" width="8" height="200"/>
    <rect x="388" y="120" width="14" height="200"/>
    <rect x="414" y="120" width="8" height="200"/>
    <rect x="432" y="120" width="24" height="200"/>
    <rect x="468" y="120" width="8" height="200"/>
    <rect x="486" y="120" width="14" height="200"/>
    <rect x="512" y="120" width="20" height="200"/>
    <rect x="544" y="120" width="8" height="200"/>
    <rect x="562" y="120" width="14" height="200"/>
    <rect x="588" y="120" width="8" height="200"/>
    <rect x="606" y="120" width="24" height="200"/>
    <rect x="642" y="120" width="8" height="200"/>
    <rect x="660" y="120" width="14" height="200"/>
  </g>
  <text x="390" y="410" font-family="Arial, Helvetica, sans-serif" font-size="90" font-weight="700" fill="#1a1a1a" text-anchor="middle" letter-spacing="2">BOLETO</text>
</svg>
